<?xml version="1.0" standalone="no"?>
<!DOCTYPE svg PUBLIC "-//W3C//DTD SVG 20010904//EN"
 "http://www.w3.org/TR/2001/REC-SVG-20010904/DTD/svg10.dtd">
<svg version="1.0" xmlns="http://www.w3.org/2000/svg"
 width="541.000000pt" height="80.000000pt" viewBox="0 0 541.000000 80.000000"
 preserveAspectRatio="xMidYMid meet">

<g transform="translate(0.000000,80.000000) scale(0.100000,-0.100000)"
fill="#000000" stroke="none">
<path d="M1610 390 l0 -240 40 0 40 0 0 118 c0 135 8 152 71 152 55 0 59 -10
59 -147 l0 -123 45 0 45 0 0 120 c0 131 -11 176 -51 204 -33 23 -100 21 -132
-4 -14 -11 -28 -20 -31 -20 -3 0 -6 41 -6 90 l0 90 -40 0 -40 0 0 -240z"/>
<path d="M2380 390 l0 -240 40 0 c28 0 40 4 40 14 0 11 8 10 38 -6 47 -24 96
-17 135 20 69 66 59 247 -17 297 -26 17 -101 18 -138 1 -16 -7 -18 -1 -18 73
l0 81 -40 0 -40 0 0 -240z m194 8 c17 -23 22 -133 8 -154 -23 -35 -76 -39
-107 -8 -22 22 -21 141 2 166 23 26 78 24 97 -4z"/>
<path d="M966 604 c-30 -29 -10 -74 32 -74 33 0 52 16 52 45 0 43 -53 61 -84
29z"/>
<path d="M531 593 c-18 -9 -45 -34 -60 -56 -23 -36 -26 -52 -29 -142 -4 -125
18 -191 76 -227 48 -30 133 -29 195 1 l47 23 0 94 0 94 -80 0 -80 0 0 -30 c0
-28 2 -30 40 -30 l40 0 0 -44 c0 -42 -2 -45 -34 -56 -40 -13 -79 -1 -99 32
-36 58 -28 220 14 264 33 35 77 30 104 -13 17 -27 26 -32 58 -33 43 0 48 15
19 69 -35 65 -135 91 -211 54z"/>
<path d="M3251 582 c-48 -24 -73 -62 -75 -111 -1 -53 20 -73 114 -112 87 -35
110 -53 110 -86 0 -58 -97 -106 -179 -88 -32 7 -71 47 -71 72 0 8 -7 13 -17
11 -26 -5 -19 -56 10 -86 33 -32 96 -45 163 -33 66 13 98 33 118 76 39 82 10
126 -111 170 -89 33 -112 59 -93 106 33 80 210 86 210 7 0 -23 29 -36 40 -18
13 21 -11 71 -44 91 -40 25 -128 25 -175 1z"/>
<path d="M4865 588 c-3 -7 -23 -98 -45 -203 -22 -104 -42 -198 -44 -208 -4
-16 19 -36 29 -25 2 2 14 49 26 103 12 55 28 113 36 128 30 59 130 89 166 49
22 -24 21 -68 -3 -178 -24 -109 -24 -104 -2 -104 15 0 22 18 40 102 34 157 29
194 -28 223 -40 21 -89 19 -128 -5 -18 -11 -34 -20 -36 -20 -2 0 3 28 10 63
17 80 17 87 -1 87 -9 0 -18 -6 -20 -12z"/>
<path d="M1300 530 l0 -40 -40 0 c-39 0 -40 -1 -40 -35 0 -34 1 -35 40 -35
l40 0 0 -104 c0 -89 3 -107 21 -129 22 -29 85 -50 124 -42 14 3 36 7 50 10 20
4 25 11 25 35 0 30 0 30 -56 27 -75 -3 -84 11 -84 120 l0 83 65 0 65 0 0 35 0
35 -65 0 -65 0 0 40 0 40 -40 0 -40 0 0 -40z"/>
<path d="M860 455 l0 -35 50 0 50 0 0 -100 0 -100 -50 0 -50 0 0 -35 0 -35
140 0 140 0 0 34 c0 34 -1 35 -47 38 l-48 3 -3 133 -3 132 -89 0 -90 0 0 -35z"/>
<path d="M1992 363 c5 -149 19 -186 75 -209 41 -18 81 -11 118 17 l25 20 0
-20 c0 -18 6 -21 40 -21 l40 0 0 170 0 170 -45 0 -45 0 0 -124 c0 -132 -2
-139 -52 -151 -19 -5 -32 -1 -47 14 -19 19 -21 33 -21 141 l0 120 -46 0 -47 0
5 -127z"/>
<path d="M3625 467 c-59 -33 -97 -101 -103 -185 -4 -62 -2 -70 22 -99 31 -37
72 -47 132 -32 52 13 120 71 92 77 -10 2 -32 -6 -48 -18 -17 -12 -48 -24 -70
-27 -51 -7 -90 28 -90 81 l0 35 123 3 122 3 3 49 c5 70 -4 94 -41 116 -42 26
-93 25 -142 -3z m124 -34 c12 -11 22 -32 23 -53 l3 -35 -102 -3 c-57 -1 -103
0 -103 3 0 17 33 66 56 84 33 26 94 28 123 4z"/>
<path d="M3962 472 c-81 -44 -129 -200 -87 -282 26 -50 112 -61 173 -22 20 13
22 13 22 -2 0 -19 28 -22 35 -3 7 18 65 290 65 304 0 18 -29 16 -36 -1 -5 -12
-11 -11 -37 5 -39 23 -91 24 -135 1z m128 -47 c20 -21 22 -31 17 -76 -8 -68
-35 -119 -76 -146 -40 -27 -78 -29 -109 -7 -48 33 -19 184 45 234 37 29 93 27
123 -5z"/>
<path d="M4555 476 c-91 -40 -149 -220 -94 -289 39 -50 134 -56 197 -12 25 18
54 69 45 79 -13 13 -30 5 -41 -20 -23 -49 -125 -71 -162 -34 -43 43 -12 187
49 227 63 43 151 21 151 -38 0 -14 5 -19 18 -17 25 5 18 56 -12 86 -30 30
-106 39 -151 18z"/>
<path d="M4275 458 c-9 -42 -65 -302 -65 -305 0 -2 9 -3 19 -3 16 0 22 11 31
58 23 114 38 169 50 191 13 25 66 51 105 51 16 0 25 6 25 15 0 20 -62 20 -102
-1 -28 -15 -30 -15 -25 0 5 11 1 16 -13 16 -12 0 -22 -9 -25 -22z"/>
</g>
</svg>
